<?xml version="1.0" standalone="no"?>
<!DOCTYPE svg PUBLIC "-//W3C//DTD SVG 20010904//EN"
 "http://www.w3.org/TR/2001/REC-SVG-20010904/DTD/svg10.dtd">
<svg version="1.0" xmlns="http://www.w3.org/2000/svg"
 width="512.000000pt" height="512.000000pt" viewBox="0 0 512.000000 512.000000"
 preserveAspectRatio="xMidYMid meet">

<g transform="translate(0.000000,512.000000) scale(0.100000,-0.100000)"
fill="#000000" stroke="none">
<path d="M165 3358 c-2 -7 -25 -218 -51 -468 -41 -401 -46 -473 -41 -605 12
-311 102 -508 294 -639 137 -93 312 -136 553 -136 299 0 512 66 694 216 165
136 294 393 341 681 19 123 105 945 98 956 -4 7 -473 11 -473 3 0 -51 -94
-877 -104 -915 -61 -226 -228 -341 -495 -341 -204 0 -335 66 -393 198 -37 83
-34 201 11 634 23 212 41 396 41 407 0 21 -3 21 -235 21 -180 0 -237 -3 -240
-12z"/>
<path d="M2290 3364 c0 -17 -181 -1754 -185 -1781 l-6 -33 240 0 239 0 6 38
c3 20 15 127 26 237 12 110 24 203 28 207 4 4 248 9 542 10 l535 3 57 28 c114
56 215 195 271 372 51 164 62 237 62 440 0 173 -2 196 -23 257 -42 121 -133
196 -263 218 -68 10 -1529 15 -1529 4z m1294 -576 c29 -41 11 -166 -27 -190
-7 -4 -205 -8 -441 -8 l-429 0 6 48 c4 26 9 75 13 110 l7 62 428 0 428 0 15
-22z"/>
<path d="M4455 3358 c-7 -25 -95 -643 -95 -672 0 -27 54 -328 66 -369 5 -16
18 -17 141 -15 l136 3 92 195 93 195 46 320 c26 176 46 328 46 338 0 16 -19
17 -260 17 -200 0 -262 -3 -265 -12z"/>
<path d="M4280 2175 c0 -3 -20 -142 -45 -308 -25 -167 -45 -306 -45 -310 0 -4
119 -7 265 -7 205 0 265 3 265 13 0 6 20 145 44 307 24 162 42 298 39 303 -5
8 -523 10 -523 2z"/>
</g>
</svg>
